<?xml version="1.0" encoding="UTF-8"?>
<svg width="261px" height="298px" viewBox="0 0 261 298" version="1.1" xmlns="http://www.w3.org/2000/svg" xmlns:xlink="http://www.w3.org/1999/xlink">
    <!-- Generator: Sketch 50.2 (55047) - http://www.bohemiancoding.com/sketch -->
    <title>Face-ID</title>
    <desc>Created with Sketch.</desc>
    <defs></defs>
    <g id="Face-ID" stroke="none" stroke-width="1" fill="none" fill-rule="evenodd">
        <g id="face-scan" fill="#FFFFFF" fill-rule="nonzero">
            <path d="M216.033429,206.664 L175.280143,198.506667 C170.936357,197.648 167.785714,193.802667 167.785714,189.378667 L167.785714,180.008 C170.470286,176.274667 172.968429,171.272 175.597071,166.064 C177.591857,162.125333 180.593357,156.170667 181.935643,154.789333 C189.840214,147.042667 198.266786,137.448 200.8395,124.904 C203.1885,113.554667 200.858143,107.656 198.136286,102.989333 C198.136286,93.8613333 198.136286,77.136 194.967,65.1146667 C194.631429,50.5546667 191.984143,42.3413333 185.272714,35.0613333 C180.537429,29.928 173.565,28.752 167.972143,27.8 C165.753643,27.4266667 162.714857,26.9226667 161.652214,26.3253333 C151.995214,20.9493333 142.170429,18.2986667 130.145786,18 C105.537214,18.9333333 75.3357857,34.5573333 65.2313571,62.6506667 C62.1552857,71.1813333 62.4535714,85.1813333 62.6772857,96.4373333 L62.4162857,102.989333 C60.0486429,107.656 57.7182857,113.554667 60.0672857,124.885333 C62.64,137.466667 71.0665714,147.061333 78.9338571,154.770667 C80.2947857,156.189333 83.3335714,162.162667 85.347,166.101333 C87.9942857,171.290667 90.5297143,176.274667 93.2142857,180.008 L93.2142857,189.378667 C93.2142857,193.802667 90.0636429,197.648 85.7385,198.525333 L44.9665714,206.682667 C18.9038571,211.909333 0,235 0,261.6 L0,279.333333 C0,289.637333 8.37064286,298 18.6428571,298 L242.357143,298 C252.648,298 261,289.637333 261,279.333333 L261,261.6 C261,235 242.0775,211.909333 216.033429,206.664 Z" id="Shape"></path>
            <path d="M45.8333333,0 L9.16666667,0 C4.10666667,0 0,4.144 0,9.25 L0,64.75 C0,69.856 4.10666667,74 9.16666667,74 C14.2266667,74 18.3333333,69.856 18.3333333,64.75 L18.3333333,18.5 L45.8333333,18.5 C50.8933333,18.5 55,14.356 55,9.25 C55,4.144 50.8933333,0 45.8333333,0 Z" id="Shape"></path>
            <path d="M45.8333333,167.5 L18.3333333,167.5 L18.3333333,121.25 C18.3333333,116.144 14.2266667,112 9.16666667,112 C4.10666667,112 0,116.144 0,121.25 L0,176.75 C0,181.856 4.10666667,186 9.16666667,186 L45.8333333,186 C50.8933333,186 55,181.856 55,176.75 C55,171.644 50.8933333,167.5 45.8333333,167.5 Z" id="Shape"></path>
            <path d="M251.833333,0 L215.166667,0 C210.106667,0 206,4.144 206,9.25 C206,14.356 210.106667,18.5 215.166667,18.5 L242.666667,18.5 L242.666667,64.75 C242.666667,69.856 246.773333,74 251.833333,74 C256.893333,74 261,69.856 261,64.75 L261,9.25 C261,4.144 256.893333,0 251.833333,0 Z" id="Shape"></path>
            <path d="M251.833333,112 C246.773333,112 242.666667,116.144 242.666667,121.25 L242.666667,167.5 L215.166667,167.5 C210.106667,167.5 206,171.644 206,176.75 C206,181.856 210.106667,186 215.166667,186 L251.833333,186 C256.893333,186 261,181.856 261,176.75 L261,121.25 C261,116.144 256.893333,112 251.833333,112 Z" id="Shape"></path>
        </g>
    </g>
</svg>