<?xml version="1.0" encoding="UTF-8"?>
<svg width="476px" height="297px" viewBox="0 0 476 297" version="1.1" xmlns="http://www.w3.org/2000/svg" xmlns:xlink="http://www.w3.org/1999/xlink">
    <!-- Generator: Sketch 50.2 (55047) - http://www.bohemiancoding.com/sketch -->
    <title>ID</title>
    <desc>Created with Sketch.</desc>
    <defs></defs>
    <g id="ID" stroke="none" stroke-width="1" fill="none" fill-rule="evenodd">
        <g fill-rule="nonzero">
            <path d="M166.6,0 L31.7333333,0 C14.2086,0 0,11.0818125 0,24.75 L0,272.25 C0,285.918187 14.2086,297 31.7333333,297 L444.266667,297 C461.7914,297 476,285.918187 476,272.25 L476,24.75 C476,11.0818125 461.7914,0 444.266667,0 L309.4,0 L166.6,0 Z" id="Shape" fill="#ECECEC"></path>
            <path d="M444.266667,284.666667 L31.7333333,284.666667 C14.2086,284.666667 0,273.622167 0,260 L0,272.333333 C0,285.9555 14.2086,297 31.7333333,297 L444.266667,297 C461.7914,297 476,285.9555 476,272.333333 L476,260 C476,273.622167 461.7914,284.666667 444.266667,284.666667 Z" id="Shape" fill="#B6C1CE"></path>
            <path d="M180,154 L180,123.333333 C180,89.4589333 152.2426,62 118,62 C83.7574,62 56,89.4589333 56,123.333333 L56,154 L180,154 Z" id="Shape" fill="#D3A06C"></path>
            <path d="M117.090909,62 C115.032182,62 113.003909,62.1104 111,62.3066667 C141.777364,65.3856 165.818182,91.5258667 165.818182,123.333333 L165.818182,154 L178,154 L178,123.333333 C178,89.4589333 150.731,62 117.090909,62 Z" id="Shape" fill="#B27946"></path>
            <path d="M136.6,216 L176.3606,223.983111 C190.0192,226.727111 201.0056,236.894222 204.831,250.334222 L211,272 L25,272 L31.169,250.334222 C34.9944,236.894222 45.9808,226.720889 59.6394,223.983111 L99.4,216 L136.6,216 Z" id="Shape" fill="#92E0C0"></path>
            <path d="M186.142857,272 L211,272 L204.816786,250.334222 C200.982571,236.894222 189.970857,226.727111 176.280786,223.983111 L136.428571,216 L124,216 L168.171143,235.656 C175.541286,238.935111 180.866929,245.599111 182.451571,253.52 L186.142857,272 Z" id="Shape" fill="#48C397"></path>
            <g id="Group" transform="translate(56.000000, 117.000000)" fill="#F9E0A6">
                <path d="M43.4,86.2105263 L43.4,98.5263158 C43.4,108.729947 51.7266,117 62,117 C72.2734,117 80.6,108.729947 80.6,98.5263158 L80.6,86.2105263 L43.4,86.2105263 Z" id="Shape"></path>
                <path d="M99.2,18.4736842 L105.4,18.4736842 C115.6734,18.4736842 124,26.7437368 124,36.9473684 C124,47.151 115.6734,55.4210526 105.4,55.4210526 L99.2,55.4210526 L99.2,18.4736842 Z" id="Shape"></path>
                <path d="M24.8,18.4736842 L18.6,18.4736842 C8.3266,18.4736842 0,26.7437368 0,36.9473684 C0,47.151 8.3266,55.4210526 18.6,55.4210526 L24.8,55.4210526 L24.8,18.4736842 Z" id="Shape"></path>
                <path d="M18.6,18.4736842 L18.6,49.2631579 C18.6,73.0695789 38.0308,92.3684211 62,92.3684211 C85.9692,92.3684211 105.4,73.0695789 105.4,49.2631579 L105.4,18.4736842 C89.5218,18.4736842 74.2946,12.2111053 63.0664,1.05915789 L62,0 L60.9336,1.05915789 C49.7054,12.2111053 34.4782,18.4736842 18.6,18.4736842 Z" id="Shape"></path>
            </g>
            <path d="M148.5,167.443426 C148.5,189.383494 132.19375,207.47814 111,210.502211 C113.04375,210.794662 115.125,211 117.25,211 C141.4125,211 161,191.499099 161,167.443426 L161,136.331587 C156.7625,136.331587 152.58125,135.858687 148.5,135 L148.5,167.443426 Z" id="Shape" fill="#EABD8C"></path>
            <path d="M177.445608,218.195667 L142.745804,211.276667 L142.745804,209.654833 C154.190739,203.031833 162.715668,191.981167 165.982114,178.8585 C177.396117,176.669333 186.050962,166.673167 186.050962,154.666667 L186.050962,123.833333 C186.050962,86.4325 155.520826,56 118,56 C80.4791743,56 49.9490383,86.4325 49.9490383,123.833333 L49.9490383,154.666667 C49.9490383,166.673167 58.6038834,176.669333 70.0178856,178.864667 C73.2843317,191.987333 81.8092613,203.038 93.2541958,209.661 L93.2541958,211.282833 L58.5605782,218.201833 C42.5871616,221.383833 29.8863776,233.057333 25.4135734,248.671333 L17,278 L219,278 L210.592613,248.665167 C206.113622,233.051167 193.412838,221.3715 177.445608,218.195667 Z M105.627098,214.7115 C109.592613,215.735167 113.718976,216.333333 118,216.333333 C122.281024,216.333333 126.407387,215.735167 130.372902,214.7115 L130.372902,216.333333 C130.372902,223.135167 124.823656,228.666667 118,228.666667 C111.176344,228.666667 105.627098,223.135167 105.627098,216.333333 L105.627098,214.7115 Z M167.491608,165.285667 L167.491608,144.047667 C171.172547,146.1875 173.67806,150.121833 173.67806,154.666667 C173.67806,159.2115 171.172547,163.145833 167.491608,165.285667 Z M118,68.3333333 C148.69717,68.3333333 173.67806,93.2343333 173.67806,123.833333 L173.67806,133.428667 C170.021867,131.307333 165.83364,130 161.305157,130 C147.002083,130 133.552738,124.45 123.43789,114.373667 L118,108.934667 L112.568296,114.3675 C102.447262,124.45 88.9979174,130 74.6948426,130 C70.1663604,130 65.978133,131.307333 62.3219405,133.428667 L62.3219405,123.833333 C62.3219405,93.2343333 87.3028298,68.3333333 118,68.3333333 Z M62.3219405,154.666667 C62.3219405,150.121833 64.8274531,146.1875 68.5083915,144.047667 L68.5083915,165.285667 C64.8274531,163.145833 62.3219405,159.2115 62.3219405,154.666667 Z M80.8812936,167 L80.8812936,142.0435 C94.6585202,140.773167 107.544898,135.278667 118,126.176667 C128.455102,135.2725 141.34148,140.773167 155.118706,142.0435 L155.118706,167 C155.118706,187.4055 138.470967,204 118,204 C97.5290334,204 80.8812936,187.4055 80.8812936,167 Z M172.323227,265.666667 L167.306015,245.674333 L155.3043,248.659 L159.566765,265.666667 L76.4332353,265.666667 L80.6957001,248.659 L68.6939851,245.674333 L63.6767732,265.666667 L33.4064682,265.666667 L37.3101188,252.050667 C40.508514,240.895167 49.5778513,232.564 60.985667,230.2885 L94.4791131,223.61 C97.6156438,233.649333 106.91388,241 118,241 C129.08612,241 138.384356,233.649333 141.520887,223.61 L175.014333,230.2885 C186.422149,232.564 195.491486,240.9075 198.689881,252.050667 L202.593532,265.666667 L172.323227,265.666667 Z" id="Shape" fill="#000000"></path>
            <rect id="Rectangle-path" fill="#000000" x="270" y="92" width="183" height="12"></rect>
            <rect id="Rectangle-path" fill="#000000" x="270" y="131" width="17" height="12"></rect>
            <rect id="Rectangle-path" fill="#000000" x="302" y="131" width="150" height="12"></rect>
            <rect id="Rectangle-path" fill="#000000" x="270" y="166" width="183" height="12"></rect>
            <rect id="Rectangle-path" fill="#000000" x="270" y="205" width="150" height="12"></rect>
            <rect id="Rectangle-path" fill="#000000" x="438" y="205" width="17" height="12"></rect>
        </g>
    </g>
</svg>