<?xml version="1.0" encoding="UTF-8"?>
<svg width="95px" height="95px" viewBox="0 0 95 95" version="1.1" xmlns="http://www.w3.org/2000/svg" xmlns:xlink="http://www.w3.org/1999/xlink">
    <!-- Generator: Sketch 50.2 (55047) - http://www.bohemiancoding.com/sketch -->
    <title>Phone</title>
    <desc>Created with Sketch.</desc>
    <defs></defs>
    <g id="Phone" stroke="none" stroke-width="1" fill="none" fill-rule="evenodd">
        <g id="auricular-phone-symbol-in-a-circle" fill="#FFFFFF" fill-rule="nonzero">
            <path d="M47.5,0 C73.7316895,0 95,21.2683105 95,47.5 C95,73.7316895 73.7316895,95 47.5,95 C21.2683105,95 0,73.7316895 0,47.5 C0,21.2683105 21.2683105,0 47.5,0 Z M73.9810645,63.3816992 L73.714248,62.5699316 C73.0880273,60.702959 71.0238184,58.7547168 69.1219629,58.2327734 L62.1003125,56.3134766 C60.198457,55.7974707 57.484834,56.4932715 56.087666,57.890625 L53.5479004,60.4303906 C44.3169434,57.9312598 37.0748633,50.6891797 34.5814844,41.4582227 L37.12125,38.918457 C38.5128516,37.5268555 39.2086523,34.8132324 38.6926465,32.905625 L36.778916,25.8837891 C36.2629102,23.9819336 34.3029785,21.9177246 32.4360059,21.2915039 L31.6357422,21.0246875 C29.762832,20.3984668 27.0898437,21.0304395 25.6982422,22.4279785 L21.8945312,26.2316895 C21.2161719,26.9042969 20.78125,28.8350977 20.78125,28.8410352 C20.6535937,40.9132715 25.3852246,52.5388965 33.9203809,61.0798047 C42.4323438,69.5917676 54.0175195,74.3176465 66.0489355,74.212998 C66.1127637,74.212998 68.1016406,73.7897656 68.78,73.1112207 L72.5837109,69.3075098 C73.9753125,67.9216602 74.6013477,65.2486719 73.9810645,63.3816992 Z" id="Shape"></path>
        </g>
    </g>
</svg>