<?xml version="1.0" encoding="UTF-8"?>
<svg width="186px" height="297px" viewBox="0 0 186 297" version="1.1" xmlns="http://www.w3.org/2000/svg" xmlns:xlink="http://www.w3.org/1999/xlink">
    <!-- Generator: Sketch 50.2 (55047) - http://www.bohemiancoding.com/sketch -->
    <title>Sandclock</title>
    <desc>Created with Sketch.</desc>
    <defs></defs>
    <g id="Sandclock" stroke="none" stroke-width="1" fill="none" fill-rule="evenodd">
        <g id="Group-4" fill="#FFFFFF" fill-rule="nonzero">
            <g id="Group-2">
                <g id="Group">
                    <g id="time">
                        <path d="M173.600194,261.013693 L173.600194,214.273318 C173.600194,198.223137 166.656,182.939818 154.541587,172.359193 L127.211794,148.5 L154.541587,124.640807 C166.656581,114.060182 173.600194,98.7768633 173.600194,82.7266816 L173.600194,35.9863066 C180.804206,33.4246816 186,26.618625 186,18.5625 C186,8.32818164 177.654994,0 167.4,0 L18.6,0 C8.34500625,0 0,8.32818164 0,18.5625 C0,26.618625 5.19579375,33.4246816 12.3998062,35.9863066 L12.3998062,82.7266816 C12.3998062,98.7768633 19.344,114.060182 31.4584125,124.640807 L58.7882062,148.5 L31.4584125,172.359193 C19.3434187,182.939818 12.3998062,198.223137 12.3998062,214.273318 L12.3998062,261.013693 C5.19579375,263.575318 0,270.381375 0,278.4375 C0,288.671818 8.34500625,297 18.6,297 L167.4,297 C177.654994,297 186,288.671818 186,278.4375 C186,270.381375 180.804206,263.575318 173.600194,261.013693 Z M161.200387,259.875 L24.8001937,259.875 L24.8001937,214.273318 C24.8001937,201.787137 30.2064,189.907137 39.618,181.677568 L72.2796,153.153387 C73.6310062,151.977568 74.4,150.28258 74.4,148.50058 C74.4,146.71858 73.6310062,145.023012 72.2796,143.847773 L39.618,115.323592 C30.2064,107.094023 24.8001937,95.2140234 24.8001937,82.7278418 L24.8001937,37.125 L161.200387,37.125 L161.200387,82.7266816 C161.200387,95.2128633 155.794181,107.092863 146.382581,115.322432 L113.720981,143.846613 C112.368994,145.022432 111.6,146.718 111.6,148.5 C111.6,150.282 112.368994,151.977568 113.7204,153.152807 L146.382,181.676988 C155.805806,189.906557 161.199806,201.786557 161.199806,214.272738 L161.200387,259.875 Z" id="Shape"></path>
                        <path d="M147.444691,237.687217 L97.8424074,175.705977 C95.4864835,172.768076 90.5136413,172.768076 88.1577174,175.705977 L38.5554337,237.687217 C37.0673594,239.546648 36.7819514,242.100461 37.8113965,244.244618 C38.8408417,246.389355 41.0107563,247.752551 43.3916752,247.752551 L142.596824,247.752551 C144.977743,247.752551 147.147658,246.388774 148.18931,244.244618 C149.217592,242.100461 148.932765,239.546648 147.444691,237.687217 Z" id="Shape"></path>
                        <path d="M124.027605,103.076366 C123.06888,100.762471 120.790816,99.252551 118.276426,99.252551 L68.4828653,99.252551 C65.9684752,99.252551 63.6904109,100.762471 62.7316866,103.076366 C61.7607084,105.390262 62.2957967,108.038857 64.076118,109.820829 L88.97319,134.570636 C90.1933315,135.770799 91.7863427,136.377551 93.3799373,136.377551 C94.973532,136.377551 96.5665432,135.771379 97.7866847,134.570636 L122.683757,109.820829 C124.462911,108.051039 124.998583,105.390262 124.027605,103.076366 Z" id="Shape"></path>
                    </g>
                </g>
            </g>
        </g>
    </g>
</svg>